# xmcd
#
# Track frame offsets:
# 150
# 14942
# 28754
# 48173
# 62927
# 74772
# 93766
# 107070
# 121436
# 140661
#
# Disc length: 2088 seconds
#
#
# Revision: 0
# Processed by: cddbd v1.5PL3 Copyright (c) Steve Scherf et al.
# Submitted via: FreeRIP 2.53 
#
DISCID=9708260a
DTITLE=LeDoux, Chris - Watcha Gonna Do With A Cowboy
DYEAR=1900
DGENRE=
TTITLE0=Call Of The Wild
TTITLE1=You Can't See Him From The Road
TTITLE2=Little Long Haired Outlaw
TTITLE3=Making Ends Meet
TTITLE4=Watcha Gonna Do With A Cowboy (Duet with Garth Brooks)
TTITLE5=Hooked On An 8 Second Ride
TTITLE6=I'm Ready If You're Willing
TTITLE7=Look At You Girl
TTITLE8=Cadillac Ranch
TTITLE9=Western Skies
EXTD=
EXTT0=
EXTT1=
EXTT2=
EXTT3=
EXTT4=
EXTT5=
EXTT6=
EXTT7=
EXTT8=
EXTT9=
PLAYORDER=
